<svg xmlns="http://www.w3.org/2000/svg" xmlns:xlink="http://www.w3.org/1999/xlink" viewBox="0 0 494.78 287.56"><defs><style>.cls-1,.cls-2{stroke-miterlimit:10;stroke-width:3px;}.cls-1{fill:url(#linear-gradient);stroke:url(#linear-gradient-2);}.cls-2{stroke:#303030;fill:url(#linear-gradient-3);}.cls-3{fill:url(#linear-gradient-4);}.cls-4{fill:url(#linear-gradient-5);}.cls-5{fill:url(#linear-gradient-6);}</style><linearGradient id="linear-gradient" x1="1.5" y1="268.08" x2="493.28" y2="268.08" gradientUnits="userSpaceOnUse"><stop offset="0" stop-color="#252525"/><stop offset="1" stop-color="#303030"/></linearGradient><linearGradient id="linear-gradient-2" y1="268.08" x2="494.78" y2="268.08" gradientUnits="userSpaceOnUse"><stop offset="0" stop-color="#252525"/><stop offset="1" stop-color="#353535"/></linearGradient><linearGradient id="linear-gradient-3" x1="1.5" y1="241.95" x2="493.28" y2="241.95" gradientUnits="userSpaceOnUse"><stop offset="0" stop-color="#ffa63b"/><stop offset="1" stop-color="#ffa757"/></linearGradient><linearGradient id="linear-gradient-4" x1="258.37" y1="138.48" x2="362.42" y2="138.48" gradientUnits="userSpaceOnUse"><stop offset="0" stop-color="#f7283c"/><stop offset="1" stop-color="#ef3c56"/></linearGradient><linearGradient id="linear-gradient-5" x1="130.37" y1="138.48" x2="234.42" y2="138.48" xlink:href="#linear-gradient-4"/><linearGradient id="linear-gradient-6" x1="192.64" y1="76.48" x2="300.14" y2="76.48" xlink:href="#linear-gradient-4"/></defs><g id="Layer_2" data-name="Layer 2"><g id="Layer_1-2" data-name="Layer 1"><path class="cls-1" d="M2.5,250.09H492.28a1,1,0,0,1,1,1v19a16,16,0,0,1-16,16H17.5a16,16,0,0,1-16-16v-19A1,1,0,0,1,2.5,250.09Z"/><path class="cls-2" d="M3.06,246l9.24-10.21a24,24,0,0,1,17.8-7.9H464.68a24,24,0,0,1,17.8,7.9L491.72,246a6,6,0,0,1-4.45,10H7.51A6,6,0,0,1,3.06,246Z"/><path class="cls-3" d="M313.16,93.53l48.22,71.17a6,6,0,0,1,0,6.73l-8.1,12A6,6,0,0,1,346,185.6a238,238,0,0,0-81.82-18,6,6,0,0,1-4.75-9.36q21.9-32.34,43.82-64.67A6,6,0,0,1,313.16,93.53Z"/><path class="cls-4" d="M179.62,93.53,131.4,164.7a6,6,0,0,0,0,6.73l8.11,12a6,6,0,0,0,7.3,2.17,238,238,0,0,1,81.83-18,6,6,0,0,0,4.74-9.36L189.56,93.53A6,6,0,0,0,179.62,93.53Z"/><path class="cls-5" d="M299.11,79.84l-47.75,70.48a6,6,0,0,1-9.94,0L193.67,79.84a6,6,0,0,1,0-6.73L241.42,2.63a6,6,0,0,1,9.94,0l47.75,70.48A6,6,0,0,1,299.11,79.84Z"/></g></g></svg>