<svg id="Layer_3" data-name="Layer 3" xmlns="http://www.w3.org/2000/svg" viewBox="0 0 504.14 379.5"><defs><style>.cls-1{fill:#272727;}.cls-2{fill:#ff1a41;stroke:#ff1a41;stroke-miterlimit:10;}.cls-3{fill:#fff;}</style></defs><path class="cls-1" d="M109.69,145.1a60.22,60.22,0,0,1-7.24,29.65q-7.24,13.08-18.31,20.09a51.26,51.26,0,0,1-20.09,7.68,148.73,148.73,0,0,1-23.12,1.71H3.84V85.72H40.61A160.93,160.93,0,0,1,64,87.32,51.05,51.05,0,0,1,84.46,95a53.09,53.09,0,0,1,18.47,20.17Q109.7,127.92,109.69,145.1Zm-30.56-.24q0-11.7-4-20a29.31,29.31,0,0,0-12.37-13A28.8,28.8,0,0,0,50,108.17q-6.65-.32-15.88-.32h-.55V182h.55q10,0,16.92-.36a27,27,0,0,0,13.09-4.26,29.63,29.63,0,0,0,11.14-12.73Q79.13,156.55,79.13,144.86Z" transform="translate(0.9 -66)"/><path class="cls-1" d="M122.39,204.23V85.72h80.15v22.61H152V129.1h46.56v22.6H152v29.93h50.54v22.6Z" transform="translate(0.9 -66)"/><path class="cls-1" d="M296.9,204.23H217.79V85.72h29.76v95.91H296.9Z" transform="translate(0.9 -66)"/><path class="cls-1" d="M328.94,204.23v-95.9h-35V85.72h99.8v22.61h-35v95.9Z" transform="translate(0.9 -66)"/><path class="cls-1" d="M388.36,204.23l40-118.51h32.47l40,118.51H470.25L462.85,180H425.6l-7.4,24.19Zm68-45.68-12.1-39.08-12.1,39.08Z" transform="translate(0.9 -66)"/><path class="cls-1" d="M90.31,345.13a47.26,47.26,0,0,1-2.62,15.76,33.34,33.34,0,0,1-7.56,12.5,51.77,51.77,0,0,1-6.65,5.73,39.68,39.68,0,0,1-8,4.45A50.55,50.55,0,0,1,56,386.44a58.44,58.44,0,0,1-11.5,1H28.87v38.76H-.9V307.72h46a73.68,73.68,0,0,1,17.7,1.87,42.75,42.75,0,0,1,13.49,5.93,29.89,29.89,0,0,1,10.35,11.9A39.75,39.75,0,0,1,90.31,345.13Zm-30.56.72a15.36,15.36,0,0,0-2.39-8.64,12.56,12.56,0,0,0-5.73-5,24.9,24.9,0,0,0-8.08-2.11q-3.86-.28-10.46-.28H28.87v35.5h2.07q4.22,0,8-.08a43.93,43.93,0,0,0,6.52-.56,21.5,21.5,0,0,0,5.06-1.55,13.22,13.22,0,0,0,4.1-2.59,15.7,15.7,0,0,0,4.1-6.13A27.87,27.87,0,0,0,59.75,345.85Z" transform="translate(0.9 -66)"/><path class="cls-1" d="M88.61,426.23l40-118.51h32.47l40,118.51H170.5L163.1,402H125.85l-7.4,24.19Zm68-45.68-12.1-39.08-12.1,39.08Z" transform="translate(0.9 -66)"/><path class="cls-1" d="M309.59,426.23H280.94l-45.68-82.61v82.61H208V307.72h36.53l37.8,67.89V307.72h27.22Z" transform="translate(0.9 -66)"/><path class="cls-1" d="M328.74,426.23V307.72h80.15v22.61H358.35V351.1h46.56v22.6H358.35v29.93h50.54v22.6Z" transform="translate(0.9 -66)"/><path class="cls-1" d="M503.24,426.23H424.13V307.72H453.9v95.91h49.34Z" transform="translate(0.9 -66)"/><polygon class="cls-2" points="382.88 140.57 374.95 168.3 404.55 218.25 417.38 196.86 382.88 140.57"/><polygon class="cls-2" points="198.45 167.56 212.69 181.79 260.46 99.89 250.04 81.2 198.45 167.56"/><polygon class="cls-2" points="81.15 298 147.74 177.96 134.28 160.02 45.15 316 109.78 316 120.53 298 81.15 298"/><polygon class="cls-2" points="225.65 37.5 250.04 81.2 260.98 62.89 225.15 1 134.28 160.02 147.74 177.96 225.65 37.5"/><polygon class="cls-2" points="305.39 180.38 321.85 168.04 271.47 81.02 260.46 99.89 305.39 180.38"/><polygon class="cls-2" points="297.65 1.5 260.98 62.89 271.47 81.02 297.15 37 374.95 168.3 382.88 140.57 297.65 1.5"/><path class="cls-3" d="M44.45,266.09a59,59,0,0,0-1.87,13.78q0,14.94,7.18,21.49T73,307.92q14.54,0,21.54-7.3t7-23.41l.16-106.09h20.59l-.08,79.11q0,8,2.53,11.17t10.75,3.19H138v21.58h-2.41a28.77,28.77,0,0,1-7.88-.91,22.43,22.43,0,0,1-5.9-2.66q-1.08,15-6.93,25.45A38.84,38.84,0,0,1,98.53,323.9Q88,329.33,72.88,329.34q-24.4,0-37.77-12.54T21.75,280a76.89,76.89,0,0,1,2.32-17.89,122.7,122.7,0,0,1,6-18.47l19,7.72A114.71,114.71,0,0,0,44.45,266.09Z" transform="translate(0.9 -66)"/><path class="cls-3" d="M193.07,286.17a33,33,0,0,1-13.32-2.49,24.14,24.14,0,0,1-9.5-7.38A30.55,30.55,0,0,1,159,283.72a39.69,39.69,0,0,1-14.2,2.45h-10V264.59h10q8.88,0,12-3.24t3.11-11.45q0-4.49-.29-9.38c-.19-3.27-.37-6.39-.54-9.38l20.17-2.49,1.58,23.91q.41,6.56,3.24,9.29t9.21,2.74h1.83v21.58Zm-29.55-98.61L178,201.92l-14.45,14.44-14.44-14.44Z" transform="translate(0.9 -66)"/><path class="cls-3" d="M199.05,295.55l12.87,12.87L199.05,321.2l-12.78-12.78Zm44-62.63a96.87,96.87,0,0,1,1.33,15.4q0,19.59-10.21,28.72t-30,9.13H191.75V264.59h12.36a52.88,52.88,0,0,0,12.08-1,8,8,0,0,0,5.77-4.44q1.57-3.41,1.58-10.54a84.34,84.34,0,0,0-1.16-12.78q-1.17-7.39-2.58-13.28l19.84-4.9A123.93,123.93,0,0,1,243,232.92ZM213,317.3l12.86,12.87L213,343l-12.79-12.78Zm14.27-21.75,12.87,12.87L227.27,321.2l-12.78-12.78Z" transform="translate(0.9 -66)"/><path class="cls-3" d="M306.74,286.17q-16.44,0-25.4-8.92t-9-28V171.12H293v78.2q0,9.38,3.28,12.32t10.42,2.95h2.08v21.58Z" transform="translate(0.9 -66)"/><path class="cls-3" d="M318.94,188.31l13.53,13.44-13.53,13.62-13.53-13.62Zm51.55,97.86a36.81,36.81,0,0,1-9.46-1.12,24.42,24.42,0,0,1-7.51-3.32,24.83,24.83,0,0,1-5.86-5.52,30.23,30.23,0,0,1-12.7,7.56,56.89,56.89,0,0,1-17.1,2.4H305.5V264.59H318a47.17,47.17,0,0,0,12-1.16,8.54,8.54,0,0,0,5.68-4.15q1.54-3,1.54-8.55,0-4.81-.29-10c-.2-3.43-.4-6.67-.62-9.71l20.25-2.41,1.58,24c.27,4.31,1.35,7.39,3.23,9.21s5,2.74,9.22,2.74h1.82v21.58Zm-23.57-97.86,13.53,13.53-13.53,13.53-13.53-13.62Z" transform="translate(0.9 -66)"/><path class="cls-3" d="M369.16,264.59h6.73q6.06,0,9.09-1.49a7.56,7.56,0,0,0,4-4.86,31.77,31.77,0,0,0,1-8.84V171.12h20.67v78.2q0,17.43-8.22,27.14t-26.65,9.71h-6.64Z" transform="translate(0.9 -66)"/><path class="cls-3" d="M430.51,263.6a70.2,70.2,0,0,0,10.34.91q10.36,0,16.39-1.54t8.59-4.23a8.59,8.59,0,0,0,2.57-6.1q0-4.39-4.31-10.25a76.19,76.19,0,0,0-12.33-12.58,168.14,168.14,0,0,0-19.05-13.61l11.79-17.77a170,170,0,0,1,24,16.9,74.09,74.09,0,0,1,15.64,17.88,36.83,36.83,0,0,1,5.52,19.18q0,16.94-12.49,25.28T441.92,286a89,89,0,0,1-11.82-.75q-5.61-.75-10.75-1.83V261.6Q424.49,262.68,430.51,263.6Z" transform="translate(0.9 -66)"/><polygon class="cls-2" points="279.15 316 288.15 298 144.9 298 134.4 316 279.15 316"/><polygon class="cls-2" points="396.4 360.5 422.4 360.5 321.85 168.04 305.39 180.38 396.4 360.5"/><polygon class="cls-2" points="250.04 81.2 260.46 99.89 271.47 81.02 260.98 62.89 250.04 81.2"/><polygon class="cls-2" points="72.15 379 306.15 379 315.15 361 108.15 361 134.4 316 109.78 316 72.15 379"/><polygon class="cls-2" points="109.78 316 134.4 316 144.9 298 120.53 298 109.78 316"/><polygon class="cls-2" points="120.53 298 144.9 298 212.69 181.79 198.45 167.56 120.53 298"/><polygon class="cls-2" points="468.65 298.5 417.38 196.86 404.55 218.25 441.15 298.5 468.65 298.5"/></svg>