<svg id="Layer_3" data-name="Layer 3" xmlns="http://www.w3.org/2000/svg" viewBox="0 0 467.91 379.5"><defs><style>.cls-1{fill:#ff1a41;stroke:#ff1a41;stroke-miterlimit:10;}.cls-2{fill:#fff;}</style></defs><polygon class="cls-1" points="360.24 140.57 352.31 168.3 381.91 218.25 394.74 196.86 360.24 140.57"/><polygon class="cls-1" points="175.81 167.56 190.04 181.79 237.82 99.89 227.39 81.2 175.81 167.56"/><polygon class="cls-1" points="58.5 298 125.09 177.96 111.64 160.02 22.5 316 87.14 316 97.89 298 58.5 298"/><polygon class="cls-1" points="203 37.5 227.39 81.2 238.33 62.89 202.5 1 111.64 160.02 125.09 177.96 203 37.5"/><polygon class="cls-1" points="282.75 180.38 299.21 168.04 248.83 81.02 237.82 99.89 282.75 180.38"/><polygon class="cls-1" points="275 1.5 238.33 62.89 248.83 81.02 274.5 37 352.31 168.3 360.24 140.57 275 1.5"/><path class="cls-2" d="M44.45,266.09a59,59,0,0,0-1.87,13.78q0,14.94,7.18,21.49T73,307.92q14.54,0,21.54-7.3t7-23.41l.16-106.09h20.59l-.08,79.11q0,8,2.53,11.17t10.75,3.19H138v21.58h-2.41a28.77,28.77,0,0,1-7.88-.91,22.43,22.43,0,0,1-5.9-2.66q-1.08,15-6.93,25.45A38.84,38.84,0,0,1,98.53,323.9Q88,329.33,72.88,329.34q-24.4,0-37.77-12.54T21.75,280a76.89,76.89,0,0,1,2.32-17.89,122.7,122.7,0,0,1,6-18.47l19,7.72A114.71,114.71,0,0,0,44.45,266.09Z" transform="translate(-21.75 -66)"/><path class="cls-2" d="M193.07,286.17a33,33,0,0,1-13.32-2.49,24.14,24.14,0,0,1-9.5-7.38A30.55,30.55,0,0,1,159,283.72a39.69,39.69,0,0,1-14.2,2.45h-10V264.59h10q8.88,0,12-3.24t3.11-11.45q0-4.49-.29-9.38c-.19-3.27-.37-6.39-.54-9.38l20.17-2.49,1.58,23.91q.41,6.56,3.24,9.29t9.21,2.74h1.83v21.58Zm-29.55-98.61L178,201.92l-14.45,14.44-14.44-14.44Z" transform="translate(-21.75 -66)"/><path class="cls-2" d="M199.05,295.55l12.87,12.87L199.05,321.2l-12.78-12.78Zm44-62.63a96.87,96.87,0,0,1,1.33,15.4q0,19.59-10.21,28.72t-30,9.13H191.75V264.59h12.36a52.88,52.88,0,0,0,12.08-1,8,8,0,0,0,5.77-4.44q1.57-3.41,1.58-10.54a84.34,84.34,0,0,0-1.16-12.78q-1.17-7.39-2.58-13.28l19.84-4.9A123.93,123.93,0,0,1,243,232.92ZM213,317.3l12.86,12.87L213,343l-12.79-12.78Zm14.27-21.75,12.87,12.87L227.27,321.2l-12.78-12.78Z" transform="translate(-21.75 -66)"/><path class="cls-2" d="M306.74,286.17q-16.44,0-25.4-8.92t-9-28V171.12H293v78.2q0,9.38,3.28,12.32t10.42,2.95h2.08v21.58Z" transform="translate(-21.75 -66)"/><path class="cls-2" d="M318.94,188.31l13.53,13.44-13.53,13.62-13.53-13.62Zm51.55,97.86a36.81,36.81,0,0,1-9.46-1.12,24.42,24.42,0,0,1-7.51-3.32,24.83,24.83,0,0,1-5.86-5.52,30.23,30.23,0,0,1-12.7,7.56,56.89,56.89,0,0,1-17.1,2.4H305.5V264.59H318a47.17,47.17,0,0,0,12-1.16,8.54,8.54,0,0,0,5.68-4.15q1.54-3,1.54-8.55,0-4.81-.29-10c-.2-3.43-.4-6.67-.62-9.71l20.25-2.41,1.58,24c.27,4.31,1.35,7.39,3.23,9.21s5,2.74,9.22,2.74h1.82v21.58Zm-23.57-97.86,13.53,13.53-13.53,13.53-13.53-13.62Z" transform="translate(-21.75 -66)"/><path class="cls-2" d="M369.16,264.59h6.73q6.06,0,9.09-1.49a7.56,7.56,0,0,0,4-4.86,31.77,31.77,0,0,0,1-8.84V171.12h20.67v78.2q0,17.43-8.22,27.14t-26.65,9.71h-6.64Z" transform="translate(-21.75 -66)"/><path class="cls-2" d="M430.51,263.6a70.2,70.2,0,0,0,10.34.91q10.36,0,16.39-1.54t8.59-4.23a8.59,8.59,0,0,0,2.57-6.1q0-4.39-4.31-10.25a76.19,76.19,0,0,0-12.33-12.58,168.14,168.14,0,0,0-19.05-13.61l11.79-17.77a170,170,0,0,1,24,16.9,74.09,74.09,0,0,1,15.64,17.88,36.83,36.83,0,0,1,5.52,19.18q0,16.94-12.49,25.28T441.92,286a89,89,0,0,1-11.82-.75q-5.61-.75-10.75-1.83V261.6Q424.49,262.68,430.51,263.6Z" transform="translate(-21.75 -66)"/><polygon class="cls-1" points="256.5 316 265.5 298 122.25 298 111.75 316 256.5 316"/><polygon class="cls-1" points="373.5 361.5 400.5 362.5 299.21 168.04 282.75 180.38 373.5 361.5"/><polygon class="cls-1" points="227.39 81.2 237.82 99.89 248.83 81.02 238.33 62.89 227.39 81.2"/><polygon class="cls-1" points="49.5 379 283.5 379 292.5 361 85.5 361 111.75 316 87.14 316 49.5 379"/><polygon class="cls-1" points="87.14 316 111.75 316 122.25 298 97.89 298 87.14 316"/><polygon class="cls-1" points="97.89 298 122.25 298 190.04 181.79 175.81 167.56 97.89 298"/><polygon class="cls-1" points="446 298.5 394.74 196.86 381.91 218.25 418.5 298.5 446 298.5"/></svg>