<svg xmlns="http://www.w3.org/2000/svg" xmlns:xlink="http://www.w3.org/1999/xlink" viewBox="0 0 130.38 500.19"><defs><style>.cls-1{fill:url(#linear-gradient);}.cls-2{fill:#19191e;}.cls-3{fill:#121314;}.cls-4{fill:#e6c576;}.cls-5{fill:#dfb661;}.cls-6{fill:url(#linear-gradient-2);}.cls-7{fill:url(#linear-gradient-3);}.cls-8{fill:url(#linear-gradient-4);}.cls-9{fill:url(#linear-gradient-5);}.cls-10{fill:url(#linear-gradient-6);}.cls-11{fill:url(#linear-gradient-7);}.cls-12{fill:url(#linear-gradient-8);}.cls-13{fill:url(#linear-gradient-9);}.cls-14{fill:url(#linear-gradient-10);}.cls-15{fill:url(#linear-gradient-11);}.cls-16{fill:url(#linear-gradient-12);}.cls-17{fill:url(#linear-gradient-13);}.cls-18{fill:url(#linear-gradient-14);}.cls-19{fill:url(#linear-gradient-15);}.cls-20{fill:url(#linear-gradient-16);}.cls-21{fill:url(#radial-gradient);}.cls-22{fill:url(#radial-gradient-2);}.cls-23{fill:#e7ce8d;stroke:#ffbdf7;stroke-miterlimit:10;stroke-width:3px;}</style><linearGradient id="linear-gradient" x1="10.53" y1="500.19" x2="10.53" y2="0.01" gradientUnits="userSpaceOnUse"><stop offset="0" stop-color="#323232"/><stop offset="0.61" stop-color="#2f2f2f"/><stop offset="0.97" stop-color="#272727"/><stop offset="1" stop-color="#262626"/></linearGradient><linearGradient id="linear-gradient-2" x1="66.89" y1="132.58" x2="66.89" y2="107.04" gradientUnits="userSpaceOnUse"><stop offset="0" stop-color="#4981d8"/><stop offset="0.04" stop-color="#568dde"/><stop offset="0.16" stop-color="#73a9ed"/><stop offset="0.28" stop-color="#87bdf7"/><stop offset="0.39" stop-color="#94c9fd"/><stop offset="0.5" stop-color="#98cdff"/><stop offset="0.61" stop-color="#94c9fd"/><stop offset="0.72" stop-color="#87bdf7"/><stop offset="0.84" stop-color="#73a9ed"/><stop offset="0.96" stop-color="#568dde"/><stop offset="1" stop-color="#4981d8"/></linearGradient><linearGradient id="linear-gradient-3" x1="55.02" y1="138.53" x2="55.02" y2="121.58" xlink:href="#linear-gradient-2"/><linearGradient id="linear-gradient-4" x1="79.14" y1="139.55" x2="79.14" y2="122.24" xlink:href="#linear-gradient-2"/><linearGradient id="linear-gradient-5" x1="47.43" y1="163.01" x2="67.12" y2="163.01" xlink:href="#linear-gradient-2"/><linearGradient id="linear-gradient-6" x1="47.2" y1="180.51" x2="47.2" y2="162.8" xlink:href="#linear-gradient-2"/><linearGradient id="linear-gradient-7" x1="44.73" y1="198.61" x2="44.73" y2="180.91" gradientTransform="matrix(0.96, 0.28, 0.28, -0.96, -50.75, 360.95)" xlink:href="#linear-gradient-2"/><linearGradient id="linear-gradient-8" x1="46.97" y1="181.4" x2="62.79" y2="181.4" xlink:href="#linear-gradient-2"/><linearGradient id="linear-gradient-9" x1="64.96" y1="180.52" x2="64.96" y2="162.59" xlink:href="#linear-gradient-2"/><linearGradient id="linear-gradient-10" x1="71.68" y1="163.01" x2="91.37" y2="163.01" xlink:href="#linear-gradient-2"/><linearGradient id="linear-gradient-11" x1="71.45" y1="180.51" x2="71.45" y2="162.8" xlink:href="#linear-gradient-2"/><linearGradient id="linear-gradient-12" x1="71.23" y1="181.4" x2="87.04" y2="181.4" xlink:href="#linear-gradient-2"/><linearGradient id="linear-gradient-13" x1="89.21" y1="180.52" x2="89.21" y2="162.59" xlink:href="#linear-gradient-2"/><linearGradient id="linear-gradient-14" x1="68.21" y1="192.21" x2="87.9" y2="192.21" gradientTransform="translate(154.38 392.15) rotate(180)" xlink:href="#linear-gradient-2"/><linearGradient id="linear-gradient-15" x1="67.98" y1="209.71" x2="67.98" y2="192" gradientTransform="translate(154.38 392.15) rotate(180)" xlink:href="#linear-gradient-2"/><linearGradient id="linear-gradient-16" x1="86.01" y1="209.95" x2="86.01" y2="192.01" gradientTransform="translate(154.38 392.15) rotate(180)" xlink:href="#linear-gradient-2"/><radialGradient id="radial-gradient" cx="67.48" cy="365.9" fx="46.43591173183752" r="21.05" gradientTransform="translate(0 -49.48) scale(1 1.14)" gradientUnits="userSpaceOnUse"><stop offset="0" stop-color="#b87129"/><stop offset="0.48" stop-color="#b67029"/><stop offset="0.66" stop-color="#af6c2a"/><stop offset="0.78" stop-color="#a4662b"/><stop offset="0.88" stop-color="#935c2c"/><stop offset="0.97" stop-color="#7d502e"/><stop offset="1" stop-color="#724a2f"/></radialGradient><radialGradient id="radial-gradient-2" cx="72.55" cy="365.21" fx="48.16700705951532" r="25.38" gradientUnits="userSpaceOnUse"><stop offset="0" stop-color="#efb959"/><stop offset="0.98" stop-color="#b87129"/></radialGradient></defs><g id="Layer_2" data-name="Layer 2"><g id="Layer_2-2" data-name="Layer 2"><path class="cls-1" d="M20.67,500.19H12.5A12.5,12.5,0,0,1,0,487.69V13A13,13,0,0,1,13,0h8Z"/><path class="cls-2" d="M21,494.75a5.49,5.49,0,0,1-5.59-5.51l.29-214.06,64.06,1.21L54,1.86,21.06,0A10,10,0,0,0,10.5,10V490.19a10,10,0,0,0,10.17,10l78.06-1.33.87-5.94Z"/><path class="cls-3" d="M119.29,5.52,53.51,1.84l24.7,274.22,48.33.68V487.08a6,6,0,0,1-5.9,6l-22.85.39.48,5.4,19.82-.34A12.49,12.49,0,0,0,130.38,486V17.25A11.75,11.75,0,0,0,119.29,5.52Z"/><path class="cls-4" d="M15.43,489.24A5.49,5.49,0,0,0,21,494.75l77.17-1.29L78.85,276.07l-63.13-.89Z"/><path class="cls-5" d="M120.64,493.08a6,6,0,0,0,5.9-6V276.74l-48.33-.68L97.79,493.47Z"/><path class="cls-6" d="M66.38,132.17,57.6,120.35a1,1,0,0,1,0-1.17l8.3-11.72a1,1,0,0,1,1.64,0l8.65,12a1,1,0,0,1,0,1.16L68,132.16A1,1,0,0,1,66.38,132.17Z"/><path class="cls-7" d="M64.07,133.22,56.26,122a1,1,0,0,0-1.64,0L46,134.27a1,1,0,0,0,.08,1.26l2.49,2.68a1,1,0,0,0,1,.29l14-3.74A1,1,0,0,0,64.07,133.22Z"/><path class="cls-8" d="M70.29,133.34l7.34-10.66a1,1,0,0,1,1.62,0L88,134.4a1,1,0,0,1,0,1.19l-2.6,3.55a1,1,0,0,1-1.14.35l-13.45-4.64A1,1,0,0,1,70.29,133.34Z"/><path class="cls-9" d="M51.35,165.33H63.22a.75.75,0,0,0,.53-.22L66.9,162a.74.74,0,0,0-.53-1.27H48.18a.75.75,0,0,0-.52,1.28l3.17,3.14A.74.74,0,0,0,51.35,165.33Z"/><path class="cls-10" d="M50.25,165.74,47.53,163a.75.75,0,0,0-1.27.42L44,178.24a.73.73,0,0,0,.21.64l1.4,1.41a.77.77,0,0,0,1.07,0l1.62-1.63a.78.78,0,0,0,.21-.4l2-11.86A.76.76,0,0,0,50.25,165.74Z"/><path class="cls-11" d="M45.85,197.4l-3.36,1.86a.75.75,0,0,1-1.11-.75l1.86-14.86a.73.73,0,0,1,.38-.56l1.74-1a.75.75,0,0,1,1,.3l1.54,1.66a.75.75,0,0,1,.09.44l-1.78,12.31A.76.76,0,0,1,45.85,197.4Z"/><path class="cls-12" d="M47.19,180.93l1.67-1.67a.74.74,0,0,1,.53-.21h11a.74.74,0,0,1,.53.21l1.61,1.61a.75.75,0,0,1,0,1.06l-1.6,1.6a.75.75,0,0,1-.53.22H49.3a.74.74,0,0,1-.52-.22L47.2,182A.75.75,0,0,1,47.19,180.93Z"/><path class="cls-13" d="M63.2,180.33,61.76,179a.73.73,0,0,1-.23-.68l2.16-12a.78.78,0,0,1,.21-.4l3.22-3.14a.74.74,0,0,1,1.27.62l-2.6,15.07a.73.73,0,0,1-.21.43l-1.34,1.37A.75.75,0,0,1,63.2,180.33Z"/><path class="cls-14" d="M75.61,165.33H87.47a.75.75,0,0,0,.53-.22L91.15,162a.74.74,0,0,0-.53-1.27H72.44a.75.75,0,0,0-.53,1.28l3.17,3.14A.75.75,0,0,0,75.61,165.33Z"/><path class="cls-15" d="M74.5,165.74,71.78,163a.75.75,0,0,0-1.27.42l-2.31,14.8a.73.73,0,0,0,.21.64l1.41,1.41a.75.75,0,0,0,1.06,0l1.62-1.63a.71.71,0,0,0,.21-.4l2-11.86A.76.76,0,0,0,74.5,165.74Z"/><path class="cls-16" d="M71.45,180.93l1.66-1.67a.74.74,0,0,1,.53-.21h11a.74.74,0,0,1,.53.21l1.61,1.61a.75.75,0,0,1,0,1.06l-1.6,1.6a.75.75,0,0,1-.53.22H73.55a.74.74,0,0,1-.52-.22L71.45,182A.74.74,0,0,1,71.45,180.93Z"/><path class="cls-17" d="M87.45,180.33,86,179a.75.75,0,0,1-.23-.68l2.16-12a.78.78,0,0,1,.21-.4l3.22-3.14a.75.75,0,0,1,1.28.62L90,178.5a.73.73,0,0,1-.21.43l-1.34,1.37A.75.75,0,0,1,87.45,180.33Z"/><path class="cls-18" d="M82.25,197.62H70.38a.75.75,0,0,0-.53.22L66.7,201a.75.75,0,0,0,.53,1.28H85.42a.75.75,0,0,0,.52-1.29l-3.17-3.14A.74.74,0,0,0,82.25,197.62Z"/><path class="cls-19" d="M83.35,197.21l2.72,2.72a.75.75,0,0,0,1.27-.42l2.31-14.8a.73.73,0,0,0-.21-.64L88,182.66a.75.75,0,0,0-1.06,0l-1.63,1.63a.78.78,0,0,0-.21.4l-2,11.87A.74.74,0,0,0,83.35,197.21Z"/><path class="cls-20" d="M69.86,182.4l2,1.55a.73.73,0,0,1,.23.68l-2.16,12a.78.78,0,0,1-.21.4l-3.76,2.92a.75.75,0,0,1-1.27-.63l2.6-15.07a.79.79,0,0,1,.21-.43l1.34-1.37A.74.74,0,0,1,69.86,182.4Z"/><path class="cls-21" d="M93.93,367.49c.93-12.35-8.24-25.66-22-26.46s-25,11.56-24.88,24.35c.17,15,15.9,26.68,29.53,23.44C86.24,386.53,93.2,377.19,93.93,367.49Z"/><path class="cls-22" d="M95.48,367.41C96.55,354.19,85.75,340.71,72,341c-12.53.3-22.55,11.89-22.43,24.35.13,13,11.33,24.73,24.41,24C85.64,388.7,94.6,378.33,95.48,367.41Z"/><path class="cls-23" d="M90.6,366.32c.67-9.38-6.83-19.24-16.56-19.08-9,.16-16.05,8.8-16,17.64,0,9.2,7.71,18.07,17.1,17.64C83.66,382.14,90,374.22,90.6,366.32Z"/></g></g></svg>