<svg xmlns="http://www.w3.org/2000/svg" viewBox="0 0 2416.03 2432"><defs><style>.a{fill:#23212e;}</style></defs><path class="a" d="M2392,1216.16c0-49,29-99.15,23.27-146.58-5.82-48.47-45.95-90.34-57.37-136.86-11.61-47.29,4.47-103-12.56-147.87-17.23-45.43-66.26-76.42-88.66-119C2234.14,622.91,2236.37,565,2209,525.32c-27.53-39.83-82.54-58.2-114.57-94.33s-43.7-93-79.88-125.08-93.91-36.8-133.73-64.34c-39.65-27.43-64.48-79.85-107.4-102.43-42.59-22.4-99.82-13.21-145.24-30.45-44.9-17-81.59-62-128.88-73.59-46.52-11.43-99.83,11.27-148.31,5.44C1303.52,34.83,1257.15,0,1208.18,0s-95.34,34.81-142.77,40.5c-48.47,5.82-101.78-16.9-148.3-5.48-47.3,11.61-84,56.52-128.9,73.56-45.43,17.23-102.66,8-145.25,30.41C600,161.55,575.19,214,535.53,241.38c-39.83,27.54-97.62,32.28-133.75,64.31S354,394.57,321.87,430.74s-87.06,54.48-114.6,94.3c-27.43,39.65-25.21,97.58-47.79,140.5-22.41,42.59-71.45,73.57-88.69,119-17,44.9-1,100.58-12.6,147.87C46.76,978.92,6.61,1020.78.78,1069.25-4.92,1116.68,24,1166.87,24,1215.84S-4.95,1315,.74,1362.41c5.82,48.48,45.95,90.35,57.37,136.87,11.61,47.29-4.47,103,12.56,147.87,17.23,45.43,66.26,76.42,88.66,119,22.56,42.92,20.33,100.86,47.75,140.51,27.53,39.83,82.54,58.2,114.57,94.33s43.7,93,79.88,125.08,93.91,36.8,133.73,64.34c39.65,27.43,64.48,79.85,107.4,102.43,42.59,22.4,99.82,13.21,145.24,30.45,44.9,17,81.59,62,128.88,73.59,46.52,11.43,99.83-11.27,148.31-5.44,47.43,5.71,93.79,40.53,142.76,40.54s95.34-34.81,142.77-40.5c48.47-5.82,101.78,16.9,148.3,5.48,47.3-11.61,84-56.52,128.9-73.56,45.43-17.23,102.66-8,145.26-30.41,42.92-22.56,67.76-75,107.42-102.39,39.83-27.54,97.62-32.28,133.75-64.31s47.83-88.88,79.91-125,87.06-54.48,114.6-94.3c27.43-39.65,25.21-97.58,47.79-140.5,22.41-42.59,71.45-73.57,88.69-119,17-44.9,1-100.58,12.6-147.87,11.43-46.52,51.58-88.38,57.41-136.85C2421,1315.32,2392,1265.13,2392,1216.16Z" transform="translate(0 0)"/></svg>